<?xml version="1.0" standalone="no"?>
<!DOCTYPE svg PUBLIC "-//W3C//DTD SVG 1.1//EN" "http://www.w3.org/Graphics/SVG/1.1/DTD/svg11.dtd" >
<svg xmlns="http://www.w3.org/2000/svg">
<metadata>
<json>
<![CDATA[
{
	"fontFamily": "sfmoma-icons",
	"majorVersion": 1,
	"minorVersion": 3,
	"fontURL": "http://sfmoma.org",
	"designer": "SFMOMA",
	"designerURL": "http://sfmoma.org",
	"description": "SFMOMA Icons\nFont generated by IcoMoon.",
	"copyright": "San Francisco Museum of Modern Art",
	"version": "Version 1.3",
	"fontId": "sfmoma-icons",
	"psName": "sfmoma-icons",
	"subFamily": "Regular",
	"fullName": "sfmoma-icons"
}
]]>
</json>
</metadata>
<defs>
<font id="sfmoma-icons" horiz-adv-x="1024">
<font-face units-per-em="1024" ascent="960" descent="-64" />
<missing-glyph horiz-adv-x="1024" />
<glyph unicode="&#x20;" horiz-adv-x="512" d="" />
<glyph unicode="&#xe600;" glyph-name="sfmoma-arrow-circled-down" data-tags="sfmoma-arrow-circled-down" d="M85.333 426.667c0-235.52 191.147-426.667 426.667-426.667s426.667 191.147 426.667 426.667-191.147 426.667-426.667 426.667c-235.52 0-426.667-191.147-426.667-426.667zM853.333 426.667c0-188.16-153.173-341.333-341.333-341.333s-341.333 153.173-341.333 341.333 153.173 341.333 341.333 341.333c188.16 0 341.333-153.173 341.333-341.333zM365.227 512l-45.227-45.227 192-192 192 192-45.227 45.227-146.773-146.773-146.773 146.773z" />
<glyph unicode="&#xe601;" glyph-name="sfmoma-arrow-circled-left" data-tags="sfmoma-arrow-circled-left" d="M512 853.334c-235.52 0-426.667-191.147-426.667-426.667s191.147-426.667 426.667-426.667 426.667 191.147 426.667 426.667c0 235.52-191.147 426.667-426.667 426.667zM512 85.334c-188.16 0-341.333 153.173-341.333 341.333s153.173 341.333 341.333 341.333 341.333-153.173 341.333-341.333c0-188.16-153.173-341.333-341.333-341.333zM597.333 573.44l-45.227 45.227-192-192 192-192 45.227 45.227-146.773 146.773 146.773 146.773z" />
<glyph unicode="&#xe602;" glyph-name="sfmoma-arrow-circled-right" data-tags="sfmoma-arrow-circled-right" d="M512 0c235.52 0 426.667 191.147 426.667 426.667s-191.147 426.667-426.667 426.667-426.667-191.147-426.667-426.667c0-235.52 191.147-426.667 426.667-426.667zM512 768c188.16 0 341.333-153.173 341.333-341.333s-153.173-341.333-341.333-341.333-341.333 153.173-341.333 341.333c0 188.16 153.173 341.333 341.333 341.333zM426.667 279.894l45.227-45.227 192 192-192 192-45.227-45.227 146.773-146.773-146.773-146.773z" />
<glyph unicode="&#xe603;" glyph-name="sfmoma-arrow-circled-up" data-tags="sfmoma-arrow-circled-up" d="M938.667 426.667c0 235.52-191.147 426.667-426.667 426.667s-426.667-191.147-426.667-426.667 191.147-426.667 426.667-426.667c235.52 0 426.667 191.147 426.667 426.667zM170.667 426.667c0 188.16 153.173 341.333 341.333 341.333s341.333-153.173 341.333-341.333-153.173-341.333-341.333-341.333c-188.16 0-341.333 153.173-341.333 341.333zM658.773 341.334l45.227 45.227-192 192-192-192 45.227-45.227 146.773 146.773 146.773-146.773z" />
<glyph unicode="&#xe604;" glyph-name="arrow-down" data-tags="arrow-down" d="M810.667 540.109l-60.16 57.225-238.507-226.88-238.507 226.88-60.16-57.225 298.667-284.109 298.667 284.109z" />
<glyph unicode="&#xe605;" glyph-name="arrow-left" data-tags="arrow-left" d="M625.442 128l57.225 60.16-226.88 238.507 226.88 238.507-57.225 60.16-284.109-298.667 284.109-298.667z" />
<glyph unicode="&#xe606;" glyph-name="arrow-right" data-tags="arrow-right" d="M398.558 725.334l-57.225-60.16 226.88-238.507-226.88-238.507 57.225-60.16 284.109 298.667-284.109 298.667z" />
<glyph unicode="&#xe607;" glyph-name="arrow-up" data-tags="arrow-up" d="M213.333 313.225l60.16-57.225 238.507 226.88 238.507-226.88 60.16 57.225-298.667 284.109-298.667-284.109z" />
<glyph unicode="&#xe608;" glyph-name="sfmoma-carousel" data-tags="sfmoma-carousel" d="M298.667 682.667h426.667v-512h-426.667v512zM85.333 512h128v-170.667h-128v170.667zM810.667 512h128v-170.667h-128v170.667z" />
<glyph unicode="&#xe609;" glyph-name="sfmoma-cart" data-tags="sfmoma-cart" d="M380.331 298.667h430.336v-85.333h-554.667v85.333l87.765 88.021-173.099 381.312h-128v85.333h128l85.333-42.667v-42.667h682.667l-256-384h-217.003l-85.333-85.333zM298.667 170.667c-47.104 0-85.333-38.187-85.333-85.333s38.229-85.333 85.333-85.333 85.333 38.187 85.333 85.333c0 47.147-38.229 85.333-85.333 85.333zM725.333 170.667c-47.104 0-85.333-38.187-85.333-85.333s38.229-85.333 85.333-85.333 85.333 38.187 85.333 85.333c0 47.147-38.229 85.333-85.333 85.333z" />
<glyph unicode="&#xe60a;" glyph-name="sfmoma-close" data-tags="sfmoma-close" d="M810.667 665.174l-60.16 60.16-238.507-238.507-238.507 238.507-60.16-60.16 238.507-238.507-238.507-238.507 60.16-60.16 238.507 238.507 238.507-238.507 60.16 60.16-238.507 238.507 238.507 238.507z" />
<glyph unicode="&#xe60b;" glyph-name="sfmoma-download-app" data-tags="sfmoma-download-app" d="M213.333 853.334v-853.333h597.333v853.333h-597.333zM725.333 170.667h-426.667v597.333h426.667v-597.333zM682.667 426.667h-128v256h-85.333v-256h-128l170.667-170.667z" />
<glyph unicode="&#xe60c;" glyph-name="sfmoma-download" data-tags="sfmoma-download" d="M85.333 85.334v-85.333h853.333v85.333h-853.333zM554.667 853.334v-519.253l238.507 238.080 60.16-60.16-341.333-341.333-341.333 341.333 60.16 60.587 238.507-238.507v519.253h85.333z" />
<glyph unicode="&#xe60d;" glyph-name="sfmoma-email" data-tags="sfmoma-email" d="M85.76 725.334l-0.427-597.333h853.333v597.333h-852.907zM853.333 554.667l-341.333-213.333-341.333 213.333v85.333l341.333-213.333 341.333 213.333v-85.333z" />
<glyph unicode="&#xe60e;" glyph-name="sfmoma-fullscreen-enter" data-tags="sfmoma-fullscreen-enter" d="M213.333 298.667h-85.333v-256h256v85.333h-170.667v170.667zM128 554.667h85.333v170.667h170.667v85.333h-256v-256zM810.667 128h-170.667v-85.333h256v256h-85.333v-170.667zM640 810.667v-85.333h170.667v-170.667h85.333v256h-256z" />
<glyph unicode="&#xe60f;" glyph-name="sfmoma-fullscreen-exit" data-tags="sfmoma-fullscreen-exit" d="M298.667 213.334h-170.667v85.333h256v-256h-85.333v170.667zM384 810.667h-85.333v-170.667h-170.667v-85.333h256v256zM725.333 213.334h170.667v85.333h-256v-256h85.333v170.667zM896 554.667v85.333h-170.667v170.667h-85.333v-256h256z" />
<glyph unicode="&#xe610;" glyph-name="sfmoma-info" data-tags="sfmoma-info" d="M512 853.334c-235.52 0-426.667-191.147-426.667-426.667s191.147-426.667 426.667-426.667 426.667 191.147 426.667 426.667c0 235.52-191.147 426.667-426.667 426.667zM512 85.334c-188.16 0-341.333 153.173-341.333 341.333s153.173 341.333 341.333 341.333 341.333-153.173 341.333-341.333c0-188.16-153.173-341.333-341.333-341.333zM469.333 469.334h85.333v-256h-85.333v256zM469.333 640h85.333v-85.333h-85.333v85.333z" />
<glyph unicode="&#xe611;" glyph-name="sfmoma-list" data-tags="sfmoma-list" d="M128 213.334h85.333v-85.333h-85.333v85.333zM128 384h85.333v85.333h-85.333v-85.333zM128 725.334v-85.333h85.333v85.333h-85.333zM298.667 213.334h597.333v-85.333h-597.333v85.333zM298.667 384h597.333v85.333h-597.333v-85.333zM298.667 725.334v-85.333h597.333v85.333h-597.333z" />
<glyph unicode="&#xe612;" glyph-name="sfmoma-location" data-tags="sfmoma-location" d="M512 810.667c-141.227 0-256-136.107-256-277.333 0-192 256-490.667 256-490.667s256 298.667 256 490.667c0 141.227-114.773 277.333-256 277.333zM512 469.334c-47.104 0-85.333 38.187-85.333 85.333s38.229 85.333 85.333 85.333 85.333-38.187 85.333-85.333c0-47.147-38.229-85.333-85.333-85.333z" />
<glyph unicode="&#xe613;" glyph-name="sfmoma-menu" data-tags="sfmoma-menu" d="M128 768h768v-85.333h-768v85.333zM128 170.667h768v-85.333h-768v85.333zM128 469.334h768v-85.333h-768v85.333z" />
<glyph unicode="&#xe614;" glyph-name="sfmoma-refresh-ccw" data-tags="sfmoma-refresh-ccw" d="M512 810.667c-212.096 0-384-171.904-384-384h-128l170.667-170.667 170.667 170.667h-128c0 164.949 133.717 298.667 298.667 298.667s298.667-133.717 298.667-298.667c0-164.949-133.717-298.667-298.667-298.667-70.485 0-135.168 24.576-186.283 65.451l-60.629-60.672c66.773-56.149 152.832-90.112 246.912-90.112 212.096 0 384 171.904 384 384s-171.904 384-384 384z" />
<glyph unicode="&#xe615;" glyph-name="sfmoma-refresh" data-tags="sfmoma-refresh" d="M512 810.667c212.096 0 384-170.667 384-384h128l-170.667-170.667-170.667 170.667h128c0 170.667-133.717 298.667-298.667 298.667s-298.667-133.717-298.667-298.667c0-164.949 133.717-298.667 298.667-298.667 70.485 0 135.168 24.576 186.283 65.451l60.629-60.672c-66.773-56.149-152.832-90.112-246.912-90.112-212.096 0-384 171.904-384 384s171.904 384 384 384z" />
<glyph unicode="&#xe616;" glyph-name="sfmoma-search" data-tags="sfmoma-search" d="M152.064 40.96l235.648 235.392c48.256-34.688 107.221-55.381 171.179-55.381 162.261 0 293.803 131.627 293.803 293.973s-131.541 293.973-293.803 293.973-293.803-131.584-293.803-293.931c0-63.744 20.48-122.581 54.955-170.752l-235.307-235.861 67.328-67.413zM357.12 514.987c0 111.531 90.368 201.941 201.813 201.941s201.813-90.411 201.813-201.941c0-111.531-90.368-201.941-201.813-201.941-111.488 0-201.813 90.411-201.813 201.941z" />
<glyph unicode="&#xe617;" glyph-name="sfmoma-share" data-tags="sfmoma-share" d="M810.667 426.667h85.333v-384h-768v768h341.333v-85.333h-256v-597.333h597.333v298.667zM938.667 682.667l-213.333 170.667v-143.061c-170.667 0-298.667-130.756-298.667-282.769 0-107.503 0-86.17 0-86.17h85.333c0 42.667 0 65.694 0 93.7 0 108.578 85.333 196.599 213.333 196.599v-119.633l213.333 170.667z" />
<glyph unicode="&#xe618;" glyph-name="sfmoma-thumbnails" data-tags="sfmoma-thumbnails" d="M298.667 640h-170.667v170.667h170.667v-170.667zM597.333 810.667h-170.667v-170.667h170.667v170.667zM896 810.667h-170.667v-170.667h170.667v170.667zM298.667 512h-170.667v-170.667h170.667v170.667zM597.333 512h-170.667v-170.667h170.667v170.667zM896 512h-170.667v-170.667h170.667v170.667zM298.667 213.334h-170.667v-170.667h170.667v170.667zM597.333 213.334h-170.667v-170.667h170.667v170.667zM896 213.334h-170.667v-170.667h170.667v170.667z" />
<glyph unicode="&#xe619;" glyph-name="sfmoma-user" data-tags="sfmoma-user" d="M512 768c-94.293 0-170.667-76.373-170.667-170.667s76.373-170.667 170.667-170.667 170.667 76.373 170.667 170.667-76.373 170.667-170.667 170.667zM512 341.334c-327.125 0-341.333-256-341.333-256h682.667c0 0-14.208 256-341.333 256z" />
<glyph unicode="&#xe61a;" glyph-name="sfmoma-zoom-in" data-tags="sfmoma-zoom-in" d="M576 810.667c-176.725 0-320-143.275-320-320 0-70.144 22.827-134.827 61.141-187.605l-220.928-221.355 70.827-70.827 221.355 220.928c52.779-38.315 117.419-61.141 187.605-61.141 176.725 0 320 143.275 320 320s-143.275 320-320 320zM576 256c-129.621 0-234.667 105.045-234.667 234.667s105.045 234.667 234.667 234.667 234.667-105.045 234.667-234.667c0-129.621-105.045-234.667-234.667-234.667zM725.333 469.334h-128v-128h-42.667v128h-128v42.667h128v128h42.667v-128h128v-42.667z" />
<glyph unicode="&#xe61b;" glyph-name="sfmoma-zoom-out" data-tags="sfmoma-zoom-out" d="M576 810.667c-176.725 0-320-143.275-320-320 0-70.187 22.827-134.827 61.141-187.605l-220.928-221.355 70.827-70.827 221.355 220.928c52.779-38.315 117.419-61.141 187.605-61.141 176.725 0 320 143.275 320 320s-143.275 320-320 320zM576 256c-129.621 0-234.667 105.045-234.667 234.667s105.045 234.667 234.667 234.667 234.667-105.045 234.667-234.667-105.045-234.667-234.667-234.667zM725.333 469.334h-298.667v42.667h298.667v-42.667z" />
<glyph unicode="&#xe61c;" glyph-name="sfmoma-zoom" data-tags="sfmoma-zoom" d="M576 810.667c-176.725 0-320-143.275-320-320 0-70.187 22.827-134.827 61.141-187.605l-220.928-221.355 70.827-70.827 221.355 220.928c52.779-38.315 117.419-61.141 187.605-61.141 176.725 0 320 143.275 320 320s-143.275 320-320 320zM576 256c-129.621 0-234.667 105.045-234.667 234.667s105.045 234.667 234.667 234.667 234.667-105.045 234.667-234.667-105.045-234.667-234.667-234.667z" />
<glyph unicode="&#xe800;" glyph-name="sfmoma-folder-01" data-tags="sfmoma-folder-01" d="M426.667 768h-341.333v-682.667h853.333v597.333h-426.667l-85.333 85.333z" />
<glyph unicode="&#xe801;" glyph-name="sfmoma-file-01" data-tags="sfmoma-file-01" d="M213.333 853.334v-853.333h640v597.333l-256 256h-384zM554.667 554.667v234.667l234.667-234.667h-234.667z" />
<glyph unicode="&#xe802;" glyph-name="dotdotdot" data-tags="dotdotdot" d="M284.459 487.552c-46.933 0-85.333-38.4-85.333-85.333s38.4-85.333 85.333-85.333 85.333 38.4 85.333 85.333-38.4 85.333-85.333 85.333zM796.459 487.552c-46.933 0-85.333-38.4-85.333-85.333s38.4-85.333 85.333-85.333 85.333 38.4 85.333 85.333-38.4 85.333-85.333 85.333zM540.459 487.552c-46.933 0-85.333-38.4-85.333-85.333s38.4-85.333 85.333-85.333 85.333 38.4 85.333 85.333-38.4 85.333-85.333 85.333z" />
<glyph unicode="&#xe803;" glyph-name="sfmoma-logo-full" data-tags="sfmoma-logo-full" horiz-adv-x="2726" d="M1310.208 738.176l-92.629-271.275h-115.797l-91.307 275.243-27.477-275.243h-117.077l42.667 463.104h159.787l98.901-287.787 97.237 287.787h156.8l39.68-463.104h-123.349l-27.435 271.275zM2052.736 185.856l-92.629-271.232h-115.797l-91.307 275.2-27.435-275.2h-117.12l42.667 463.104h159.787l98.901-287.787 97.237 287.787h156.8l39.68-463.104h-123.392l-27.392 271.232zM576.853 432.896h181.291v-109.141h-181.291v-154.155h-125.696v463.104h328.832v-111.829h-203.136v-87.979zM1997.739 698.496c0-138.283-101.547-240.171-244.779-240.171s-244.779 101.888-244.779 240.171c0 138.283 101.547 240.171 244.779 240.171s244.779-101.888 244.779-240.171zM1633.195 698.155c0-74.752 50.944-130.304 119.765-130.304s118.101 55.552 118.101 130.304c0 73.131-49.323 125.355-118.101 125.355-68.821 0.043-119.765-52.224-119.765-125.355zM2395.563-22.186l-22.827-63.189h-123.051l171.008 463.104h134.955l170.709-463.104h-129.707l-22.485 63.189h-178.603zM2485.205 226.859l-52.608-145.877h104.533l-51.925 145.877zM308.907 497.579c-7.68 5.973-53.547 34.944-99.456 34.944-47.189 0-68.821-11.947-68.821-37.248 0-25.6 35.584-33.92 80.128-42.88l7.979-1.664c70.144-14.635 156.629-37.248 156.629-141.995 0-98.773-85.461-148.992-195.883-148.992-71.851 0-143.659 22.613-189.525 68.523l70.485 85.803c22.955-21.632 68.821-45.568 114.731-45.568 59.52 0 77.824 16.299 77.824 37.248 0 31.275-39.253 39.595-86.101 49.877l-7.339 1.664c-68.821 14.635-149.632 35.243-149.632 136.32 0 95.787 82.475 148.992 189.525 148.992 61.184 0 127.019-13.653 172.928-53.205l-73.472-91.819z" />
<glyph unicode="&#xe900;" glyph-name="youtube" data-tags="youtube" horiz-adv-x="1463" d="M1448.229 740.571c0 0-14.629 102.4-58.514 146.286-58.514 58.514-117.029 58.514-146.286 58.514-204.8 14.629-512 14.629-512 14.629s-307.2 0-512-14.629c-29.257 0-87.771-7.314-146.286-58.514-43.886-43.886-58.514-146.286-58.514-146.286s-14.629-117.029-14.629-241.371v-109.714c0-117.029 14.629-234.057 14.629-234.057s14.629-102.4 58.514-146.286c58.514-58.514 131.657-58.514 160.914-65.829 117.029-7.314 497.371-7.314 497.371-7.314s307.2 0 512 14.629c29.257 0 87.771 7.314 146.286 58.514 43.886 43.886 58.514 146.286 58.514 146.286s14.629 117.029 14.629 234.057v109.714c0 124.343-14.629 241.371-14.629 241.371zM585.143 228.571v438.857l438.857-219.429-438.857-219.429z" />
<glyph unicode="&#xe901;" glyph-name="bar" data-tags="bar" d="M554.667 431.407l341.333 379.26h-768c-9.911 9.911 239.36-266.402 341.333-379.396v-303.27h-170.667v-85.333h426.667v85.333h-170.667v303.407zM554.667 725.334h85.333v-85.333h-85.333v85.333z" />
<glyph unicode="&#xe902;" glyph-name="battery-charging" data-tags="battery-charging" d="M725.333 768h-128v85.333h-170.667v-85.333h-128v-768h426.667v768zM469.333 85.334v234.667h-85.333l170.667 320v-234.667h85.333l-170.667-320z" />
<glyph unicode="&#xe903;" glyph-name="battery" data-tags="battery" d="M725.333 768h-128v85.333h-170.667v-85.333h-128v-768h426.667v768z" />
<glyph unicode="&#xe904;" glyph-name="bookmark-alt" data-tags="bookmark-alt" d="M213.333 810.667v-768l298.667 170.667 298.667-170.667v768h-597.333z" />
<glyph unicode="&#xe905;" glyph-name="bookmark" data-tags="bookmark" d="M213.333 810.667v-768l298.667 170.667 298.667-170.667v768h-597.333zM725.333 170.667l-213.333 128-213.333-128v554.667h426.667v-554.667z" />
<glyph unicode="&#xe906;" glyph-name="box-arrow-out" data-tags="box-arrow-out" d="M810.667 128h-597.333v597.333h256v85.333h-341.333v-768h768v341.333h-85.333v-256zM597.333 810.667v-85.333h153.173l-320-320 60.16-60.16 320 320v-153.173h85.333v298.667h-298.667z" />
<glyph unicode="&#xe907;" glyph-name="calendar-date" data-tags="calendar-date" d="M810.667 768v85.333h-85.333v-85.333h-426.667v85.333h-85.333v-85.333h-85.333v-768h768v768h-85.333zM810.667 85.334h-597.333v512h597.333v-512zM298.667 512h170.667v-170.667h-170.667v170.667z" />
<glyph unicode="&#xe908;" glyph-name="calendar-no" data-tags="calendar-no" d="M810.667 768v85.333h-85.333v-85.333h-426.667v85.333h-85.333v-85.333h-85.333v-768h768v768h-85.333zM810.667 85.334h-597.333v512h597.333v-512zM640 512l-128-128-128 128-42.667-42.667 128-128-128-128 42.667-42.667 128 128 128-128 42.667 42.667-128 128 128 128z" />
<glyph unicode="&#xe909;" glyph-name="calendar-yes" data-tags="calendar-yes" d="M810.667 768v85.333h-85.333v-85.333h-426.667v85.333h-85.333v-85.333h-85.333v-768h768v768h-85.333zM810.667 85.334h-597.333v512h597.333v-512zM426.667 256l-85.333 85.333-42.667-42.667 128-128 298.667 298.667-42.667 42.667-256-256z" />
<glyph unicode="&#xe90a;" glyph-name="camera" data-tags="camera" d="M656.256 640l-54.656 85.333h-179.2l-54.656-85.333h-282.411v-554.667h853.333v554.667h-282.411zM512 213.334c-94.259 0-170.667 76.407-170.667 170.667s76.407 170.667 170.667 170.667 170.667-76.407 170.667-170.667-76.407-170.667-170.667-170.667zM597.333 384c0-47.128-38.205-85.333-85.333-85.333s-85.333 38.205-85.333 85.333c0 47.128 38.205 85.333 85.333 85.333s85.333-38.205 85.333-85.333z" />
<glyph unicode="&#xe90b;" glyph-name="close-circled-alt" data-tags="close-circled-alt" d="M512 853.334c-235.52 0-426.667-191.147-426.667-426.667s191.147-426.667 426.667-426.667 426.667 191.147 426.667 426.667c0 235.52-191.147 426.667-426.667 426.667zM682.667 298.667l-42.667-42.667-128 128-128-128-42.667 42.667 128 128-128 128 42.667 42.667 128-128 128 128 42.667-42.667-128-128 128-128z" />
<glyph unicode="&#xe90c;" glyph-name="close-circled" data-tags="close-circled" d="M512 853.334c-235.52 0-426.667-191.147-426.667-426.667s191.147-426.667 426.667-426.667 426.667 191.147 426.667 426.667c0 235.52-191.147 426.667-426.667 426.667zM512 78.622c-192.218 0-348.045 155.827-348.045 348.045s155.827 348.045 348.045 348.045 348.045-155.827 348.045-348.045-155.827-348.045-348.045-348.045zM640 597.334l-128-128-128 128-42.667-42.667 128-128-128-128 42.667-42.667 128 128 128-128 42.667 42.667-128 128 128 128z" />
<glyph unicode="&#xe90d;" glyph-name="closed-caption" data-tags="closed-caption" d="M512 853.334c-235.52 0-426.667-191.147-426.667-426.667s191.147-426.667 426.667-426.667 426.667 191.147 426.667 426.667c0 235.52-191.147 426.667-426.667 426.667zM341.333 368c22.959 0 42.628 13.316 52.267 32.533l61.769-30.886c-21.022-41.924-63.94-70.98-114.035-70.98-70.694 0-128 57.306-128 128s57.306 128 128 128c50.095 0 93.013-29.056 114.035-70.98l-61.769-30.886c-9.638 19.217-29.308 32.533-52.267 32.533-32.401 0-58.667-26.266-58.667-58.667s26.266-58.667 58.667-58.667zM682.667 368c22.959 0 42.628 13.316 52.267 32.533l61.769-30.886c-21.022-41.924-63.94-70.98-114.035-70.98-70.694 0-128 57.306-128 128s57.306 128 128 128c50.095 0 93.013-29.056 114.035-70.98l-61.769-30.886c-9.638 19.217-29.308 32.533-52.267 32.533-32.401 0-58.667-26.266-58.667-58.667s26.266-58.667 58.667-58.667z" />
<glyph unicode="&#xe90e;" glyph-name="coffee" data-tags="coffee" d="M810.667 554.667h-640v-298.667c0-94.293 76.373-170.667 170.667-170.667h213.333c94.293 0 170.667 76.373 170.667 170.667h85.333c47.36 0 85.333 37.973 85.333 85.333v128c0 47.36-37.973 85.333-85.333 85.333zM810.667 341.334h-85.333v128h85.333v-128zM427.046 694.84c37.009 23.253 77.611 30.494 77.611 158.494h-77.598c0-85.333-19.695-79.228-46.741-96.32-37.022-23.744-81.651-27.26-81.651-159.68h77.594c0 80.218 23.748 80.414 50.786 97.506zM682.001 694.84c37.026 23.253 77.606 30.494 77.606 158.494h-76.548c0-85.333-19.699-79.228-46.758-96.32-37.026-23.744-81.634-27.26-81.634-159.68h76.548c0 80.218 23.723 80.414 50.786 97.506z" />
<glyph unicode="&#xe90f;" glyph-name="cog" data-tags="cog" d="M938.667 384v85.333l-138.462 34.615c-6.387 23.863-15.433 46.605-27.183 67.712l80.311 133.854-60.339 60.339-133.158-79.898c-21.926 12.531-45.598 22.234-70.554 28.911l-34.615 138.466h-85.333l-34.615-138.462c-24.546-6.571-47.868-16.026-69.491-28.262l-132.075 79.249-60.343-60.343 79.249-132.079c-12.237-21.623-21.692-44.941-28.262-69.491l-138.462-34.611v-85.333l138.462-34.615c6.571-24.546 16.026-47.868 28.262-69.491l-79.249-132.079 60.339-60.339 132.079 79.249c21.623-12.237 44.941-21.692 69.491-28.262l34.615-138.462h85.333l34.615 138.462c24.96 6.682 48.627 16.38 70.554 28.911l133.158-79.898 60.339 60.343-80.311 133.854c11.755 21.111 20.8 43.853 27.183 67.712l138.462 34.615zM512 291.93c-74.415 0-134.737 60.322-134.737 134.737s60.322 134.737 134.737 134.737 134.737-60.322 134.737-134.737-60.322-134.737-134.737-134.737z" />
<glyph unicode="&#xe910;" glyph-name="compass" data-tags="compass" d="M813.461 728.171c-83.452 83.443-183.949 125.163-301.491 125.163-117.483 0-218.031-41.719-301.431-125.163-83.507-83.499-125.205-183.979-125.205-301.504s41.698-218.005 125.205-301.449c83.401-83.499 183.949-125.218 301.431-125.218 117.542 0 218.035 41.719 301.491 125.218 83.452 83.443 125.205 183.923 125.205 301.449s-41.754 218.005-125.205 301.504zM606.127 332.156l-350.524-162.769 162.214 351.735 350.579 162.825-162.27-351.791zM511.97 378.983c13.35 0 24.38 4.356 33.097 13.069 8.657 8.717 13.018 19.746 13.018 33.152s-4.356 24.435-13.018 33.203c-8.717 8.661-19.746 13.018-33.097 13.018-13.346 0-24.38-4.356-33.041-13.018-8.713-8.768-13.018-19.802-13.018-33.203s4.301-24.435 13.018-33.152c8.666-8.708 19.695-13.069 33.041-13.069z" />
<glyph unicode="&#xe911;" glyph-name="crosshair" data-tags="crosshair" d="M640 426.667c0-70.692-57.308-128-128-128s-128 57.308-128 128c0 70.692 57.308 128 128 128s128-57.308 128-128zM938.667 469.334h-88.286c-19.307 154.249-141.466 276.407-295.714 295.714v88.286h-85.333v-88.286c-154.249-19.307-276.407-141.466-295.714-295.714h-88.286v-85.333h88.286c19.307-154.249 141.466-276.407 295.714-295.714v-88.286h85.333v88.286c154.249 19.307 276.407 141.466 295.714 295.714h88.286v85.333zM512 162.462c-145.916 0-264.205 118.289-264.205 264.205s118.289 264.205 264.205 264.205 264.205-118.289 264.205-264.205-118.289-264.205-264.205-264.205z" />
<glyph unicode="&#xe912;" glyph-name="food" data-tags="food" d="M554.667 853.334v-853.333h85.333v384h-0.111c47.194 0 85.444 38.251 85.444 85.444v255.889c0 47.159-37.333 128-170.667 128zM426.667 853.334v-170.667h-42.667v170.667h-42.667v-170.667h-42.667v170.667h-42.667v-213.333c0-47.236 25.882-75.814 64-109.453v-530.547h85.333v530.547c38.118 33.638 64 62.217 64 109.453v213.333h-42.667z" />
<glyph unicode="&#xe913;" glyph-name="gift" data-tags="gift" d="M618.667 640l101.333 106.667-69.333 64-96-85.333v128h-85.333v-128l-85.333 85.333-64-64 106.667-106.667h-298.496l-0.171-256h341.333v256h85.504l-0.171-256h341.333v256zM128 298.667h341.333v-298.667h-341.333v298.667zM554.667 298.667h341.333v-298.667h-341.333v298.667z" />
<glyph unicode="&#xe914;" glyph-name="hanger" data-tags="hanger" d="M851.913 330.27l-307.913 164.621v21.636c55.113 14.276 96 63.898 96 123.473 0 70.694-57.306 128-128 128-63.488 0-115.797-46.34-125.879-106.965h62.285c8.734 24.951 31.292 45.141 63.595 45.141 40.55 0 67.366-30.827 67.366-66.176 0-35.179-25.37-63.949-67.533-63.949l-31.834-0.047v-81.114l-307.913-164.621c-26.172-14.579-44.087-42.185-44.087-74.27v-85.333h768v85.333c0 32.085-17.916 59.691-44.087 74.27zM832 234.667h-640v21.333c0 11.23 8.593 16.887 11.226 18.355l308.774 165.090 308.774-165.090c2.633-1.468 11.226-7.125 11.226-18.355v-21.333z" />
<glyph unicode="&#xe915;" glyph-name="headphones" data-tags="headphones" horiz-adv-x="1019" d="M509.347 806.025c-210.955 0-382.010-171.056-382.010-382.010v-254.674c0-70.46 56.877-127.337 127.337-127.337h84.891v254.674h-127.337v127.337c0 164.264 132.855 297.119 297.119 297.119s297.119-132.855 297.119-297.119v-127.337h-127.337v-254.674h84.891c70.46 0 127.337 56.877 127.337 127.337v254.674c0 210.955-171.056 382.010-382.010 382.010z" />
<glyph unicode="&#xe916;" glyph-name="location-alt" data-tags="location-alt" d="M213.333 128h597.333v-85.333h-597.333v85.333zM660.036 749.671c-40.7 40.661-90.048 60.996-148.032 60.996-58.014 0-107.341-20.335-148.032-60.996-40.7-40.661-61.039-89.975-61.039-147.93 0-28.988 7.479-62.635 22.447-100.962 14.955-38.34 186.624-287.445 186.624-287.445s172.804 251.452 187.311 288.853c14.502 37.38 21.751 70.566 21.751 99.554 0 57.954-20.339 107.268-61.030 147.93zM512 516.267c-44.77 0-81.067 36.297-81.067 81.067s36.297 81.067 81.067 81.067 81.067-36.297 81.067-81.067-36.297-81.067-81.067-81.067z" />
<glyph unicode="&#xe917;" glyph-name="calendar" data-tags="calendar" d="M810.667 768v85.333h-85.333v-85.333h-426.667v85.333h-85.333v-85.333h-85.333v-768h768v768h-85.333zM810.667 85.334h-597.333v512h597.333v-512z" />
<glyph unicode="&#xe918;" glyph-name="minus-circled-alt" data-tags="minus-circled-alt" d="M512 853.334c-235.52 0-426.667-191.147-426.667-426.667s191.147-426.667 426.667-426.667 426.667 191.147 426.667 426.667-191.147 426.667-426.667 426.667zM725.333 384h-426.667v85.333h426.667v-85.333z" />
<glyph unicode="&#xe919;" glyph-name="openspace" data-tags="openspace" d="M512-52.622c-295.822 0-512 210.489-512 500.622s216.178 500.622 512 500.622 512-210.489 512-500.622-216.178-500.622-512-500.622zM512 886.044c-256 0-443.733-187.733-443.733-438.044s187.733-438.044 443.733-438.044c261.689 0 443.733 182.044 443.733 438.044s-182.044 438.044-443.733 438.044zM517.689 135.111c-170.667 0-295.822 130.844-295.822 312.889 0 176.356 125.156 301.511 295.822 301.511s290.133-125.156 290.133-301.511c0-182.044-125.156-312.889-290.133-312.889zM517.689 686.933c-136.533 0-233.244-96.711-233.244-238.933s96.711-244.622 227.556-244.622c130.844 0 227.556 102.4 227.556 244.622s-91.022 238.933-221.867 238.933z" />
<glyph unicode="&#xe91a;" glyph-name="pause-circled-alt" data-tags="pause-circled-alt" d="M813.478 728.133c-83.477 83.447-183.974 125.201-301.461 125.201-117.551 0-218.048-41.754-301.466-125.201-83.477-83.477-125.218-183.979-125.218-301.466 0-117.534 41.741-218.031 125.218-301.478 83.418-83.477 183.915-125.201 301.466-125.201 117.487 0 217.988 41.724 301.466 125.201 83.443 83.447 125.184 183.945 125.184 301.478 0 117.487-41.741 217.988-125.188 301.466zM469.333 256h-85.333v341.333h85.333v-341.333zM640 256h-85.333v341.333h85.333v-341.333z" />
<glyph unicode="&#xe91b;" glyph-name="pause-circled" data-tags="pause-circled" d="M384 597.334h85.333v-341.333h-85.333v341.333zM554.667 597.334h85.333v-341.333h-85.333v341.333zM512 853.334c-235.52 0-426.667-191.147-426.667-426.667s191.147-426.667 426.667-426.667 426.667 191.147 426.667 426.667c0 235.52-191.147 426.667-426.667 426.667zM517.956 78.622c-192.222 0-348.045 155.827-348.045 348.045s155.823 348.045 348.045 348.045c192.218 0 348.045-155.827 348.045-348.045s-155.823-348.045-348.045-348.045z" />
<glyph unicode="&#xe91c;" glyph-name="phone-charging" data-tags="phone-charging" d="M768 291.559v-248.892h-512v725.333h320v-85.333h-234.667v-469.333h341.333v78.225h85.333zM832 632.888h-85.333v170.667l-128-256h85.333v-170.667l128 256z" />
<glyph unicode="&#xe91d;" glyph-name="phone" data-tags="phone" d="M256 768v-725.333h512v725.333h-512zM682.667 213.334h-341.333v469.333h341.333v-469.333z" />
<glyph unicode="&#xe91e;" glyph-name="play-circled-alt" data-tags="play-circled-alt" d="M512 853.334c-235.52 0-426.667-191.147-426.667-426.667s191.147-426.667 426.667-426.667 426.667 191.147 426.667 426.667-191.147 426.667-426.667 426.667zM426.667 234.667v384l256-192-256-192z" />
<glyph unicode="&#xe91f;" glyph-name="play-circled" data-tags="play-circled" d="M511.479 853.334c-235.52 0-426.667-191.147-426.667-426.667s191.147-426.667 426.667-426.667 426.667 191.147 426.667 426.667c0 235.52-191.147 426.667-426.667 426.667zM511.479 78.622c-192.222 0-348.045 155.827-348.045 348.045s155.823 348.045 348.045 348.045c192.218 0 348.045-155.827 348.045-348.045s-155.827-348.045-348.045-348.045zM426.667 234.667l256 192-256 192z" />
<glyph unicode="&#xe920;" glyph-name="plus-circled-alt" data-tags="plus-circled-alt" d="M512 853.334c-235.52 0-426.667-191.147-426.667-426.667s191.147-426.667 426.667-426.667 426.667 191.147 426.667 426.667-191.147 426.667-426.667 426.667zM725.333 384h-170.667v-170.667h-85.333v170.667h-170.667v85.333h170.667v170.667h85.333v-170.667h170.667v-85.333z" />
<glyph unicode="&#xe921;" glyph-name="plus-circled" data-tags="plus-circled" d="M512 853.334c-235.52 0-426.667-191.147-426.667-426.667s191.147-426.667 426.667-426.667 426.667 191.147 426.667 426.667c0 235.52-191.147 426.667-426.667 426.667zM512 78.622c-192.218 0-348.045 155.827-348.045 348.045s155.827 348.045 348.045 348.045 348.045-155.827 348.045-348.045-155.827-348.045-348.045-348.045zM554.667 640h-85.333v-170.667h-170.667v-85.333h170.667v-170.667h85.333v170.667h170.667v85.333h-170.667z" />
<glyph unicode="&#xe922;" glyph-name="question-circled-alt" data-tags="question-circled-alt" d="M512 853.334c-235.52 0-426.667-191.147-426.667-426.667s191.147-426.667 426.667-426.667 426.667 191.147 426.667 426.667c0 235.52-191.147 426.667-426.667 426.667zM554.667 170.667h-85.333v85.333h85.333v-85.333zM554.667 347.367v-48.7h-85.333v128h42.667c47.125 0 85.333 38.204 85.333 85.333s-38.208 85.333-85.333 85.333h-85.333v85.333h85.333c94.259 0 170.667-76.407 170.667-170.667 0-79.437-54.519-145.6-128-164.634z" />
<glyph unicode="&#xe923;" glyph-name="question-circled" data-tags="question-circled" d="M512 853.334c-235.52 0-426.667-191.147-426.667-426.667s191.147-426.667 426.667-426.667 426.667 191.147 426.667 426.667c0 235.52-191.147 426.667-426.667 426.667zM512 78.622c-192.218 0-348.041 155.827-348.041 348.045s155.823 348.045 348.041 348.045 348.041-155.827 348.041-348.045-155.823-348.045-348.041-348.045zM469.333 256h85.333v-85.333h-85.333v85.333zM512 682.667h-85.333v-85.333h85.333c47.125 0 85.333-38.204 85.333-85.333s-38.208-85.333-85.333-85.333h-42.667v-128h85.333v48.7c73.481 19.029 128 85.197 128 164.634 0 94.259-76.407 170.667-170.667 170.667z" />
<glyph unicode="&#xe924;" glyph-name="right-turn-circled" data-tags="right-turn-circled" d="M512 853.334c-235.52 0-426.667-191.147-426.667-426.667s191.147-426.667 426.667-426.667 426.667 191.147 426.667 426.667c0 235.52-191.147 426.667-426.667 426.667zM517.956 78.622c-192.222 0-348.045 155.827-348.045 348.045s155.823 348.045 348.045 348.045c192.218 0 348.045-155.827 348.045-348.045s-155.823-348.045-348.045-348.045zM597.333 512l-256-0.128v-213.205h85.333v128h170.667v-106.667l149.333 149.333-149.333 149.333z" />
<glyph unicode="&#xe925;" glyph-name="sliders" data-tags="sliders" d="M256 768h640v-85.333h-640v85.333zM128 170.667h640v-85.333h-640v85.333zM597.333 469.334h298.667v-85.333h-298.667v85.333zM128 853.334h85.333v-256h-85.333v256zM469.333 298.667h85.333v256h-85.333v-85.333h-341.333v-85.333h341.333zM810.667 256h85.333v-256h-85.333v256z" />
<glyph unicode="&#xe926;" glyph-name="minus-circled" data-tags="minus-circled" d="M512 853.334c-235.52 0-426.667-191.147-426.667-426.667s191.147-426.667 426.667-426.667 426.667 191.147 426.667 426.667c0 235.52-191.147 426.667-426.667 426.667zM512 78.622c-192.218 0-348.045 155.827-348.045 348.045s155.827 348.045 348.045 348.045 348.045-155.827 348.045-348.045-155.827-348.045-348.045-348.045zM298.667 469.334h426.667v-85.333h-426.667v85.333z" />
<glyph unicode="&#xe927;" glyph-name="smoking-no" data-tags="smoking-no" d="M85.333 469.334h85.333v-170.667h-85.333v170.667zM221.060 609.506c37.026 23.253 77.606 30.494 77.606 158.494h-84.937c0-85.333-19.699-79.228-46.758-96.32-37.030-23.744-81.638-27.26-81.638-159.68h84.937c0 80.218 23.727 80.414 50.79 97.506zM896 810.667h-128l-284.446-341.333h-270.221v-170.667h128l-213.333-256h128l640 768zM618.667 298.667h320v170.667h-177.779l-142.221-170.667z" />
<glyph unicode="&#xe92b;" glyph-name="smoking" data-tags="smoking" d="M341.333 469.334h597.333v-170.667h-597.333v170.667zM213.333 469.334h85.333v-170.667h-85.333v170.667zM85.333 469.334h85.333v-170.667h-85.333v170.667zM166.967 671.68c-37.026-23.744-81.634-27.26-81.634-159.68h84.937c0 80.218 23.727 80.414 50.79 97.506 37.026 23.253 77.606 30.494 77.606 158.494h-84.937c0-85.333-19.699-79.228-46.763-96.32z" />
<glyph unicode="&#xe92c;" glyph-name="speaker-loud" data-tags="speaker-loud" d="M128 554.667v-256h170.667l170.667-170.667v597.333l-170.667-170.667zM554.667 844.608v-81.071c150.874-38.084 262.711-174.165 262.711-336.87s-111.838-298.782-262.711-336.87v-81.071c194.65 39.586 341.333 211.665 341.333 417.941 0 206.281-146.684 378.355-341.333 417.941zM682.103 426.667c0 79.121-54.272 145.024-127.437 164.045v-70.409c35.593-16.256 60.446-51.955 60.446-93.636s-24.853-77.38-60.446-93.636v-70.409c73.165 19.021 127.437 84.928 127.437 164.045z" />
<glyph unicode="&#xe92d;" glyph-name="speaker-no" data-tags="speaker-no" d="M891.076 521.844l-44.821 44.821-111.552-111.552-111.552 111.552-44.821-44.821 111.552-111.552-111.552-111.552 44.821-44.821 111.552 111.552 111.552-111.552 44.821 44.821-111.552 111.552zM128 554.667v-256h175.59l165.743-170.667v597.333l-165.743-170.667z" />
<glyph unicode="&#xe92e;" glyph-name="speaker-quiet" data-tags="speaker-quiet" d="M213.333 554.667v-256h149.615l191.718-170.667v597.333l-191.718-170.667zM640 590.712v-70.409c0-16.256 60.446-51.955 60.446-93.636s-60.446-77.38-60.446-93.636v-70.409c42.667 19.021 127.437 84.928 127.437 164.045 0 79.121-84.77 145.024-127.437 164.045z" />
<glyph unicode="&#xe92f;" glyph-name="speaker" data-tags="speaker" d="M341.333 554.667h170.667l170.667 170.667v-597.333l-170.667 170.667h-170.667z" />
<glyph unicode="&#xe930;" glyph-name="stairs" data-tags="stairs" d="M896 213.334h-170.667v170.667h-170.667v170.667h-170.667v170.667h-256v-85.333h170.667v-170.667h170.667v-170.667h170.667v-170.667h256z" />
<glyph unicode="&#xe931;" glyph-name="tick-double" data-tags="tick-double" horiz-adv-x="1013" d="M773.147 636.242l-59.848 59.848-269.105-269.105 59.848-59.848 269.105 269.105zM953.116 696.090l-449.074-449.074-177.423 176.998-59.848-59.848 237.271-237.271 509.347 509.347-60.273 59.848zM26.528 364.166l237.271-237.271 59.848 59.848-236.846 237.271-60.273-59.848z" />
<glyph unicode="&#xe932;" glyph-name="tick" data-tags="tick" horiz-adv-x="1013" d="M402.172 245.743l-178.272 178.272-59.424-59.424 237.695-237.695 509.347 509.347-59.424 59.424-449.923-449.923z" />
<glyph unicode="&#xe933;" glyph-name="ticket" data-tags="ticket" horiz-adv-x="1019" d="M1018.694 339.123l-84.891 84.891 84.891 84.891-84.891 84.891 84.891 84.891-1018.694-0.085 84.467-84.806-84.467-84.552v-0.679l84.637-84.552-84.637-84.721v-0.34l84.806-84.721-84.806-84.891h1018.27l-84.467 84.891z" />
<glyph unicode="&#xe934;" glyph-name="toilet" data-tags="toilet" d="M170.667 298.667c0-57.463 38.118-105.506 90.257-121.69l0.026-0.905 11.26-2.598c0.358-0.077 0.704-0.171 1.062-0.243l196.062-45.231v-128h298.667l85.333 384h-682.667v-85.333zM128 554.667h426.667v-85.333h-426.667v85.333zM640 853.334v-384h213.333v384h-213.333zM768 768h-85.333v42.667h85.333v-42.667z" />
<glyph unicode="&#xe935;" glyph-name="tray-arrow-out" data-tags="tray-arrow-out" horiz-adv-x="1013" d="M801.161 126.895h-594.238v254.674h-84.891v-339.565h764.021v339.565h-84.891v-254.674zM291.813 593.797l63.668-63.668 106.114 127.337v-445.679h84.891v445.679l106.114-127.337 63.668 63.668-212.228 212.228z" />
<glyph unicode="&#xe936;" glyph-name="user-card" data-tags="user-card" d="M42.667 768v-682.667h938.667v682.667h-938.667zM597.333 640h256v-42.667h-256v42.667zM341.333 640c58.931 0 106.667-47.731 106.667-106.667 0-58.931-47.735-106.667-106.667-106.667s-106.667 47.735-106.667 106.667c0 58.935 47.735 106.667 106.667 106.667zM128 213.334c0 0 8.887 128 213.333 128s213.333-128 213.333-128h-426.667zM896 469.334h-298.667v42.667h298.667v-42.667z" />
<glyph unicode="&#xe937;" glyph-name="video-camera" data-tags="video-camera" horiz-adv-x="1013" d="M716.269 487.683v191.005h-594.238v-509.347h594.238v191.005l169.782-169.782v466.902l-169.782-169.782z" />
<glyph unicode="&#xe938;" glyph-name="ad" data-tags="ad" horiz-adv-x="1013" d="M676.247 302.382c46.525 21.444 73.707 69.22 73.707 121.632s-27.182 100.189-73.707 121.662l13.226 34.525c60.655-25.23 100.745-84.632 100.745-156.187s-40.090-130.957-100.745-156.187l-13.226 34.555zM558.317 332.875c36.418 17.169 55.549 51.75 55.549 91.139 0 39.36-19.13 73.97-55.549 91.139l11.673 32.764c49.076-19.13 82.552-65.977 82.552-123.903 0-57.955-33.477-104.773-82.552-123.903l-11.673 32.764zM264.445 319.513h-44.050l-14.041 36.881h-92.994l-13.897-36.881h-41.372l80.787 209.002h44.806l80.761-209.002zM126.934 392.231h65.986l-32.98 86.878-33.006-86.878zM397.554 528.515c65.404 0 108.55-41.486 108.55-104.531 0-62.985-43.146-104.471-108.55-104.471h-86.148v209.002h86.148zM353.067 489.537v-131.042h44.020c44.050 0 65.404 27.619 65.404 65.494 0 38.396-21.354 65.549-65.404 65.549h-44.020zM788.686 258.302c61.317 25.786 99.161 92.001 99.161 165.826 0 73.872-37.844 140.083-99.161 165.826l13.459 34.852c75.502-29.504 126.352-107.544 126.352-200.679s-50.85-171.175-126.352-200.903l-13.459 35.077z" />
<glyph unicode="&#xe939;" glyph-name="alert-circled-alt" data-tags="alert-circled-alt" d="M512 853.334c-235.52 0-426.667-191.147-426.667-426.667s191.147-426.667 426.667-426.667 426.667 191.147 426.667 426.667c0 235.52-191.147 426.667-426.667 426.667zM554.667 213.334h-85.333v85.333h85.333v-85.333zM540.459 384h-56.917l-14.208 298.667h85.333l-14.208-298.667z" />
<glyph unicode="&#xe93a;" glyph-name="alert-circled-thin" data-tags="alert-circled-thin" d="M512 860.075c-239.241 0-433.408-194.167-433.408-433.408s194.163-433.408 433.408-433.408 433.408 194.167 433.408 433.408c0 239.241-194.167 433.408-433.408 433.408zM512 59.789c-202.62 0-366.878 164.258-366.878 366.878s164.258 366.878 366.878 366.878 366.878-164.258 366.878-366.878c0-202.62-164.258-366.878-366.878-366.878zM557.739 237.078c0-25.89-20.177-45.397-46.080-45.397-25.894 0-45.743 19.507-45.743 45.397 0 25.903 19.849 46.089 45.743 46.089 25.899 0 46.080-20.186 46.080-46.089zM541.257 352.448h-58.526l-9.754 317.188h78.033l-9.754-317.188z" />
<glyph unicode="&#xe93b;" glyph-name="alert-circled" data-tags="alert-circled" d="M512 853.334c-235.52 0-426.667-191.147-426.667-426.667s191.147-426.667 426.667-426.667 426.667 191.147 426.667 426.667c0 235.52-191.147 426.667-426.667 426.667zM512 78.622c-192.218 0-348.045 155.827-348.045 348.045s155.827 348.045 348.045 348.045 348.045-155.827 348.045-348.045-155.827-348.045-348.045-348.045zM554.667 682.667l-14.208-298.667h-56.917l-14.208 298.667h85.333zM469.333 298.667h85.333v-85.333h-85.333v85.333z" />
<glyph unicode="&#xe93c;" glyph-name="alert-triangle" data-tags="alert-triangle" d="M512 853.334l-426.667-853.333h853.333l-426.667 853.333zM554.667 597.334l-14.208-298.667h-56.917l-14.208 298.667h85.333zM554.667 128h-85.333v85.333h85.333v-85.333z" />
<glyph unicode="&#xe93d;" glyph-name="arrow-tailed-up" data-tags="arrow-tailed-up" d="M213.333 483.892l60.156-57.225 195.844 186.295v-527.629h85.333v527.629l195.844-186.295 60.156 57.225-298.667 284.109z" />
<glyph unicode="&#xe93e;" glyph-name="arrows-up-down" data-tags="arrows-up-down" d="M470.404 598.405l-169.591 169.596-1.609-1.609-1.609 1.609-169.596-169.596 53.922-54.455 74.078 74.718v-320h85.333v320l74.112-74.688 54.959 54.426zM552 254.929l169.596-169.596 1.609 1.609 1.609-1.609 169.596 169.596-52.42 53.751-73.988-74.014v320h-85.333v-320l-75.635 73.958-55.031-53.696z" />
<glyph unicode="&#xe93f;" glyph-name="arrow-double-left" data-tags="arrow-double-left" d="M512 665.174l-57.225 60.16-284.109-298.667 284.109-298.667 57.225 60.16-226.88 238.507zM853.333 665.174l-57.225 60.16-284.109-298.667 284.109-298.667 57.225 60.16-226.88 238.507z" />
<glyph unicode="&#xe940;" glyph-name="arrow-double-right" data-tags="arrow-double-right" d="M569.225 725.334l-57.225-60.16 226.88-238.507-226.88-238.507 57.225-60.16 284.109 298.667zM227.891 725.334l-57.225-60.16 226.88-238.507-226.88-238.507 57.225-60.16 284.109 298.667z" />
<glyph unicode="&#xf082;" glyph-name="facebook-square" data-tags="facebook-square" horiz-adv-x="984" d="M853.611 810.667h-683.221c-23.415 0-42.389-18.974-42.389-42.389v-683.226c0-23.407 18.974-42.385 42.389-42.385h380.011v307.2h-96v115.2h96v76.395c0 99.196 49.839 153.212 138.33 153.212 42.389 0 81.455-3.157 92.070-4.565v-103.667l-67.2-0.030c-48.124 0-48-22.869-48-56.427v-64.917h119.932l-14.946-115.2h-104.986v-307.2h188.011c23.411 0 42.389 18.978 42.389 42.389v683.221c0 23.415-18.978 42.389-42.389 42.389z" />
<glyph unicode="&#xf099;" glyph-name="twitter" data-tags="twitter" horiz-adv-x="1254" d="M390.4-64c473.6 0 736 396.8 736 736 0 12.8 0 19.2 0 32 51.2 38.4 96 83.2 128 134.4-44.8-19.2-96-32-147.2-38.4 57.6 32 96 83.2 115.2 140.8-51.2-32-108.8-51.2-166.4-64-96 102.4-262.4 108.8-364.8 12.8-64-64-96-160-76.8-249.6-204.8 12.8-396.8 108.8-531.2 275.2-64-121.6-32-268.8 83.2-345.6-38.4 0-83.2 12.8-115.2 32 0 0 0 0 0-6.4 0-121.6 89.6-230.4 204.8-256-38.4-12.8-76.8-12.8-115.2-6.4 32-102.4 128-179.2 243.2-179.2-89.6-70.4-204.8-108.8-320-108.8-19.2 0-38.4 0-64 6.4 115.2-76.8 256-115.2 390.4-115.2z" />
<glyph unicode="&#xf09a;" glyph-name="facebook" data-tags="facebook, facebook-f" d="M967.111 960h-910.222c-34.133 0-56.889-22.756-56.889-56.889v-910.222c0-28.444 22.756-56.889 56.889-56.889h506.311v409.6h-125.156v153.6h125.156v102.4c0 130.844 68.267 204.8 182.044 204.8 56.889 0 108.089-5.689 125.156-5.689v-136.533h-91.022c-62.578 0-62.578-28.444-62.578-73.956v-85.333h159.289l-22.756-153.6h-142.222v-415.289h256c28.444 0 56.889 22.756 56.889 56.889v910.222c0 34.133-22.756 56.889-56.889 56.889z" />
<glyph unicode="&#xf09e;" glyph-name="rss" data-tags="rss" horiz-adv-x="1019" d="M167.998 768v-128c306.334 0 554.667-248.333 554.667-554.667h128c0 377.024-305.643 682.667-682.667 682.667zM167.998 256v-170.667h170.667c0 94.259-76.407 170.667-170.667 170.667zM167.998 511.697v-127.697c164.949 0 298.667-133.717 298.667-298.667h122.044c0 233.634-187.84 423.142-420.71 426.364z" />
<glyph unicode="&#xf16a;" glyph-name="youtube-play" data-tags="youtube-play" d="M930.146 595.938c0 0-8.337 58.526-33.924 84.297-32.448 33.826-68.821 33.997-85.5 35.972-119.411 8.593-298.658 8.947-298.658 8.947s-179.371-0.354-298.786-8.943c-16.678-1.98-53.039-2.146-85.5-35.972-25.587-25.771-33.911-84.301-33.911-84.301s-8.533-68.723-8.533-137.451v-64.431c0-68.727 8.533-137.455 8.533-137.455s8.324-58.526 33.911-84.301c32.461-33.826 75.098-32.755 94.093-36.301 68.267-6.511 290.129-7.817 290.129-7.817s179.311-0.444 298.722 8.145c16.678 1.98 53.052 2.15 85.5 35.972 25.587 25.775 33.924 84.301 33.924 84.301s8.521 68.727 8.521 137.455v64.431c0 68.727-8.521 137.451-8.521 137.451zM426.667 298.667v256l256-128.444-256-127.556z" />
<glyph unicode="&#xf16d;" glyph-name="instagram" data-tags="instagram" d="M512 868.978c136.533 0 153.6 0 204.8-5.689 51.2 0 79.644-11.378 96.711-17.067 22.756-11.378 39.822-22.756 56.889-39.822s28.444-34.133 39.822-56.889c5.689-17.067 17.067-45.511 17.067-96.711s5.689-68.267 5.689-204.8 0-153.6-5.689-204.8c0-51.2-11.378-79.644-17.067-96.711-11.378-22.756-22.756-39.822-39.822-56.889s-34.133-28.444-56.889-39.822c-17.067-5.689-45.511-17.067-96.711-17.067s-68.267-5.689-204.8-5.689-153.6 0-204.8 5.689c-51.2 0-79.644 11.378-96.711 17.067-22.756 11.378-39.822 22.756-56.889 39.822s-28.444 34.133-39.822 56.889c-5.689 17.067-17.067 45.511-17.067 96.711s-5.689 68.267-5.689 204.8 0 153.6 5.689 204.8c0 51.2 11.378 79.644 17.067 96.711 11.378 22.756 22.756 39.822 39.822 56.889 17.067 22.756 34.133 34.133 56.889 39.822 17.067 5.689 45.511 17.067 96.711 17.067 51.2 5.689 68.267 5.689 204.8 5.689zM512 960c-136.533 0-159.289 0-210.489-5.689-56.889 0-91.022-11.378-125.156-22.756s-62.578-28.444-91.022-56.889c-28.444-28.444-45.511-56.889-56.889-91.022s-22.756-68.267-22.756-125.156c-5.689-51.2-5.689-73.956-5.689-210.489s0-159.289 5.689-210.489c0-56.889 11.378-91.022 22.756-125.156s28.444-62.578 56.889-91.022c28.444-28.444 56.889-45.511 91.022-56.889s68.267-22.756 125.156-22.756c51.2-5.689 73.956-5.689 210.489-5.689s159.289 0 210.489 5.689c56.889 0 91.022 11.378 125.156 22.756s62.578 28.444 91.022 56.889c28.444 28.444 45.511 56.889 56.889 91.022s22.756 68.267 22.756 125.156c0 56.889 5.689 73.956 5.689 210.489s0 159.289-5.689 210.489c0 56.889-11.378 91.022-22.756 125.156s-28.444 62.578-56.889 91.022c-28.444 28.444-56.889 45.511-91.022 56.889s-68.267 22.756-125.156 22.756c-51.2 5.689-73.956 5.689-210.489 5.689v0zM512 709.689c-147.911 0-261.689-113.778-261.689-261.689s119.467-261.689 261.689-261.689 261.689 119.467 261.689 261.689-113.778 261.689-261.689 261.689zM512 277.333c-96.711 0-170.667 73.956-170.667 170.667s73.956 170.667 170.667 170.667 170.667-73.956 170.667-170.667-73.956-170.667-170.667-170.667zM847.644 721.067c0-34.561-28.017-62.578-62.578-62.578s-62.578 28.017-62.578 62.578c0 34.561 28.017 62.578 62.578 62.578s62.578-28.017 62.578-62.578z" />
<glyph unicode="&#xf173;" glyph-name="tumblr" data-tags="tumblr" horiz-adv-x="609" d="M603.022-1.422c-34.133-34.133-113.778-62.578-187.733-62.578h-5.689c-244.622 0-295.822 176.356-295.822 284.444v284.444h-96.711c-11.378 0-17.067 11.378-17.067 22.756v0 136.533c0 11.378 5.689 22.756 22.756 28.444 125.156 45.511 164.978 153.6 170.667 233.244 0 22.756 11.378 34.133 28.444 34.133h142.222c11.378 0 22.756-11.378 22.756-22.756v-227.556h164.978c11.378 0 22.756-11.378 22.756-17.067v-164.978c-5.689-11.378-11.378-22.756-22.756-22.756h-170.667v-267.378c0-68.267 45.511-85.333 73.956-85.333s51.2 11.378 62.578 11.378c11.378 5.689 17.067 5.689 22.756 5.689s11.378-5.689 17.067-17.067l45.511-130.844c5.689 0 5.689-11.378 0-22.756z" />
</font>
</defs>
</svg>
